<?xml version="1.0" encoding="UTF-8"?>
<svg width="160px" height="160px" viewBox="0 0 160 160" version="1.1" xmlns="http://www.w3.org/2000/svg" xmlns:xlink="http://www.w3.org/1999/xlink">
    <!-- Generator: Sketch 51.3 (57544) - http://www.bohemiancoding.com/sketch -->
    <title>Penguin</title>
    <desc>Created with Sketch.</desc>
    <defs></defs>
    <g id="Page-2" stroke="none" stroke-width="1" fill="none" fill-rule="evenodd">
        <g id="Penguin" fill-rule="nonzero">
            <circle id="Oval-3" fill="#F0F0F0" cx="80" cy="80" r="80"></circle>
            <path d="M84.5747957,29.4192957 C91.5832917,30.9018205 97.7658919,35.7360988 102.189912,42.6658616 C108.615487,49.7539927 112.694756,59.9592066 112.832233,71.3314663 C117.350367,78.7769487 120,87.8313712 120,97.5970149 C120,122.985627 102.09139,143.567164 80,143.567164 C57.90861,143.567164 40,122.985627 40,97.5970149 C40,86.9576351 43.1449705,77.1624364 48.4247969,69.3722968 C48.8389897,61.4565325 51.1655606,54.1764962 54.8458735,48.2149655 C58.340766,40.3082543 63.8320929,34.1890503 70.3832816,31.1188593 L81.3147326,17 L82.7151778,25.4397636 L83.7027923,24.1641791 L84.5747957,29.4192957 Z" id="Combined-Shape" fill="#9D9D9D"></path>
            <path d="M57.63663,66.2865231 C57.4380992,65.2827112 57.3333333,64.238592 57.3333333,63.1666667 C57.3333333,55.3426327 62.9148501,49 69.8,49 C74.0163576,49 77.7438339,51.3785793 80,55.0193416 C82.2561661,51.3785793 85.9836424,49 90.2,49 C97.0851499,49 102.666667,55.3426327 102.666667,63.1666667 C102.666667,64.238592 102.561901,65.2827112 102.36337,66.2865231 C109.495005,74.0771382 114,85.5309453 114,98.3 C114,121.772102 98.7776815,140.8 80,140.8 C61.2223185,140.8 46,121.772102 46,98.3 C46,85.5309453 50.5049952,74.0771382 57.63663,66.2865231 Z" id="Combined-Shape" fill="#C8C8C8"></path>
            <path d="M79.8461538,81.0863273 L72.0174586,85.7123744 C71.7093054,85.894465 71.357932,85.9905214 71,85.9905214 C69.8954305,85.9905214 69,85.0950909 69,83.9905214 L69,76.000315 C69,75.6423829 69.0960564,75.2910095 69.2781469,74.9828563 C69.8400738,74.0319031 71.0665054,73.716535 72.0174586,74.2784619 L79.8461538,78.9045091 L87.6748491,74.2784619 C88.6258023,73.716535 89.8522339,74.0319031 90.4141607,74.9828563 C90.5962513,75.2910095 90.6923077,75.6423829 90.6923077,76.000315 L90.6923077,83.9905214 C90.6923077,85.0950909 89.7968772,85.9905214 88.6923077,85.9905214 C88.3343756,85.9905214 87.9830023,85.894465 87.6748491,85.7123744 L79.8461538,81.0863273 Z" id="Combined-Shape" fill="#737373"></path>
        </g>
    </g>
</svg>